<svg xmlns="http://www.w3.org/2000/svg" width="2995" height="2995"><path d="m2024 719 3.443 1.68c15.151 7.41 30.02 15.157 44.612 23.616 3.13 1.811 6.271 3.604 9.414 5.395 20.591 11.76 40.547 24.235 60.281 37.371l2.501 1.664c8.733 5.815 17.419 11.69 25.995 17.735l2.047 1.442c10.207 7.239 19.841 14.974 28.96 23.542 2.448 2.277 4.952 4.451 7.497 6.617 12.075 10.79 21.253 26.001 22.426 42.395.575 11.478.425 21.863-4.176 32.543l-.992 2.582c-5.752 13.329-17.993 23.48-31.008 29.23-17.425 6.723-34.736 5.515-51.766-1.812-12.964-5.838-25.14-13.012-37.34-20.28C2050.11 889.56 1990.3 863.704 1927 849l-1.996-.464c-31.678-7.34-63.57-12.158-96.004-14.536l-1.99-.147c-13.912-.99-27.819-1.054-41.76-1.04l-3.556.001c-17.99.025-35.78.414-53.694 2.186l-4.125.39c-47.018 4.497-92.903 13.772-138.597 25.573-31.022 7.978-56.294 7.189-86.613-2.953-11.33-3.713-22.902-6.114-34.665-8.01l-2.09-.34c-20.74-2.814-44.506-2.123-64.91 2.34l-2.687.57C1346.16 863.104 1302.324 891.164 1272 930l-1.42 1.81c-7.285 9.336-13.83 18.839-19.58 29.19l-1.326 2.35c-6.762 12.08-12.385 24.452-17.549 37.275-13.34 33.118-29.885 64.296-49.125 94.375-7.562 11.874-14.993 23.788-22 36l-1.177 2.037C1122.59 1197.723 1099.01 1269.94 1087 1375l-.29 3.701c-.945 13.732-.954 27.477-.96 41.236l-.002 3.938c.069 84.133 16.542 164.193 45.064 243.111 7.177 19.93 10.648 40.087 1.657 60.135-7.987 15.654-21.026 25.258-37.203 31.266-15.644 4.703-31.042 3.896-45.766-3.387-54.808-31.178-82.656-130.83-98.125-187.063-3.25-11.94-6.064-23.97-8.688-36.062l-.482-2.215A799.27 799.27 0 0 1 939 1514l-.498-2.505c-3.269-16.671-4.958-33.438-6.441-50.34-.246-2.767-.502-5.532-.757-8.297-2.372-25.692-4.418-51.414-4.652-77.226-.319-28.07-4.353-54.002-24.32-75.382-17.564-16.946-40.068-25.485-64.394-25.375l-2.604-.012c-4.887.008-9.493.416-14.334 1.137-2.834.183-5.66.23-8.5.25-1.08.03-1.08.03-2.184.063-5.17.037-8.69-1-13.316-3.313.163-44.208 22.9-90.486 41-130l1.513-3.334c11.429-25.17 23.296-50.383 37.14-74.33 1.586-2.75 3.154-5.512 4.722-8.274 26.148-45.873 55.61-89.593 89.22-130.353 1.306-1.589 2.6-3.188 3.893-4.787a349.166 349.166 0 0 1 13.414-15.61 301.428 301.428 0 0 0 5.285-6c8.184-9.382 16.795-18.388 25.66-27.125 1.946-1.976 3.745-4.003 5.528-6.125 3.393-3.968 7.201-7.429 11.073-10.916a217.241 217.241 0 0 0 9.302-8.896 167.016 167.016 0 0 1 10.164-9.445c2.336-2.022 4.616-4.099 6.899-6.18 4.238-3.821 8.586-7.467 13.023-11.055 2.377-1.922 4.73-3.87 7.078-5.828 8.83-7.354 17.788-14.46 27.056-21.253 1.35-.99 2.699-1.985 4.045-2.982 69.444-51.443 147.297-90.268 237.99-119.866 1.869-.6 3.736-1.204 5.603-1.808 17.612-5.673 35.435-10.406 53.392-14.833l3.638-.902c87.107-21.436 177.285-30.87 610.362 65.902Z" fill="#093"/><path d="M876.629 1314.879c13.108 10.979 19.35 26.446 21.371 43.121.47 6.518.492 13.053.538 19.585.042 5.34.137 10.678.228 16.017l.052 3.227c1.385 79.99 15.296 159.145 54.182 260.171.902 2.045 1.803 4.09 2.703 6.137 5.692 12.8 12.024 25.13 18.889 37.34a441.444 441.444 0 0 1 3.861 7.09c6.783 12.623 14.577 24.532 22.547 36.433l1.537 2.307c9.385 14.053 19.53 27.537 30.573 40.332a544.527 544.527 0 0 1 5.552 6.537c6.846 8.156 14.047 15.847 21.602 23.349 1.808 1.797 3.605 3.605 5.402 5.414 6.073 6.08 12.208 11.838 18.966 17.158 2.433 1.956 4.715 4.02 6.993 6.153 6.394 5.826 13.346 10.922 20.24 16.133 23.317 17.655 33.16 31.797 37.524 60.658 7.194 47.476 28.62 88.39 61.611 122.959l1.82 1.98c5.733 6.064 12.538 11.005 19.18 16.02l1.732 1.31c29.998 22.507 65.127 36.55 102.268 41.69l2.055.29c8.896 1.072 17.873.954 26.82.96l2.682.002c30.035-.036 58.782-4.064 87.365-13.485 1.01-.33 2.021-.658 3.062-.997l2.648-.888c8.99-2.354 17.798-3.173 27.064-3.093l3.342.004c3.624.006 7.248.027 10.872.047l7.711.016c6.775.013 13.55.037 20.324.065 12.01.049 24.018.083 36.028.106l3.929.008c16.735.027 33.46-.062 50.192-.45.836-.017 1.673-.036 2.535-.055 49.058-1.124 97.563-7.51 144.371-22.53l5.387-1.676c22.427-7.097 43.9-16.585 64.955-27.015a419.698 419.698 0 0 1 6.826-3.282c32.62-15.51 63.305-36.882 91.195-59.69a819.83 819.83 0 0 1 4.485-3.63c5.208-4.211 10.325-8.526 15.402-12.895l1.658-1.417c12.34-10.686 23.992-22.13 35.51-33.684 2.105-2.109 4.214-4.213 6.324-6.316l4.102-4.106 1.869-1.863c3.734-3.754 7.28-7.626 10.736-11.637 2.248-2.593 4.587-5.09 6.926-7.601a275.031 275.031 0 0 0 12.117-14.083 693.183 693.183 0 0 1 5.828-7.117c5.442-6.561 10.85-13.126 15.993-19.926 4.289-5.632 8.846-10.9 13.687-16.062l1.66-1.89c9.688-10.57 25.116-18.31 39.46-19.249 19.82-.839 36.07 3.482 51.318 16.514 10.893 10.483 17.443 24.042 17.855 39.295.414 45.454-41.838 89.697-69.688 122.256-2.364 2.771-4.643 5.603-6.918 8.449-4.285 5.273-8.88 10.219-13.552 15.148-2.785 2.942-5.51 5.903-8.131 8.993-5.327 6.13-11.161 11.79-16.91 17.52a2961.486 2961.486 0 0 0-6.069 6.075c-6.173 6.177-12.351 12.249-19.025 17.889-1.776 1.62-3.547 3.244-5.313 4.875-4.41 4.019-8.924 7.854-13.57 11.598a455.314 455.314 0 0 0-6.922 5.71c-10.42 8.722-21.164 16.884-32.195 24.817l-2.059 1.49c-15.348 11.085-31.223 21.417-47.01 31.864-4.616 3.056-9.23 6.116-13.84 9.179-1.824 1.21-3.65 2.417-5.475 3.623-15.466 10.213-30.439 20.89-44.616 32.844l-2.203 1.828c-4.754 4.029-8.858 8.348-12.797 13.172l-2.414 2.906c-16.679 20.532-21.822 43.68-19.334 69.732 2.48 18.526 9.404 36.944 16.815 53.999.933 2.363.933 2.363.933 4.363-50.101 13.049-100.504 22.57-152 28l-2.992.327c-30.746 3.313-62.104 4.27-93.008 3.673l-3.61-.059c-81.996-1.467-163.152-16.018-519.742-198.761a800.372 800.372 0 0 0-5.421-4.422 348.05 348.05 0 0 1-15.692-13.508c-2.635-2.339-5.348-4.547-8.098-6.75-4.309-3.484-8.246-7.16-12.074-11.164-1.96-1.938-3.951-3.725-6.04-5.52-4.114-3.587-8.005-7.353-11.858-11.218l-2.068-2.065c-1.43-1.43-2.86-2.861-4.288-4.293a3400.278 3400.278 0 0 0-6.51-6.504l-4.197-4.2c-.638-.638-1.277-1.274-1.935-1.93a221.97 221.97 0 0 1-10.904-11.805c-2.406-2.773-4.927-5.436-7.438-8.113a266.86 266.86 0 0 1-12.797-14.833c-2.142-2.627-4.34-5.189-6.566-7.743-6.745-7.748-13.015-15.8-19.181-24.012a920.285 920.285 0 0 0-4.507-5.928c-24.686-32.375-46.431-67.09-65.438-103.077a1511.598 1511.598 0 0 0-3.334-6.272C856.13 1890.299 843.982 1862.99 833 1835l-1.15-2.918c-7.345-18.77-13.671-37.902-19.85-57.082l-.634-1.966c-26.171-81.408-37.395-165.996-44.814-250.867-.347-3.952-.723-7.9-1.13-11.846-1.572-15.693-1.78-31.307-1.735-47.071l.007-4.074c.045-20.873.638-41.459 3.306-62.176l.323-2.549c.832-6.552 1.708-13.097 2.615-19.639.12-.88.242-1.759.367-2.665 2.917-20.893 6.254-38.65 21.695-54.147l1.64-1.71c22.192-21.184 59.404-18.268 82.989-1.411Z" fill="#FFF"/><path d="M1492.978 1739.447c32.56 28.778 55.816 64.791 65.022 107.553l.5 2.318c4.77 23.424 4.656 50.373-.5 73.682l-.52 2.45c-11.334 52.405-42.588 97.53-87.425 126.82-40.937 26.113-93.443 35.755-141.055 25.73l-2.502-.52c-33.815-7.26-64.746-22.66-90.1-46.27a95.563 95.563 0 0 0-5.648-4.835c-3.651-3.154-6.658-6.681-9.75-10.375l-2.094-2.434c-35.648-42.238-48.748-96.805-44.441-151.242 4.058-41.179 22.642-79.067 51.076-108.797.984-1.03 1.963-2.065 2.938-3.105A171.693 171.693 0 0 1 1270 1718l2.116-1.19c71.988-40.136 158.361-30.99 220.862 22.637Z" fill="#FFF"/><path d="m1436.688 879.688 2.379.005c12.517.049 24.657.687 36.933 3.307l2.493.52c18.476 3.965 35.945 10.388 52.507 19.48l1.92 1.054c41.48 23.11 68.926 61.702 82.21 106.837 4.98 17.782 7.286 35.788 7.182 54.234l-.007 2.164c-.247 46.202-16.426 89.119-48.305 122.711l-1.35 1.433c-34.376 36.252-83.186 54.205-132.556 55.79-34.578.697-67.7-6.6-98.094-23.223l-1.889-1.022c-38.399-21.048-68.294-59.367-80.705-101.244-13.679-47.873-13.364-98.908 10.465-143.709 12.05-21.617 28.338-42.067 48.129-57.025l2.89-2.262c7.07-5.45 14.391-10.26 22.11-14.738l3.418-1.996c14.095-7.999 29.223-13.383 44.895-17.379l2.814-.723c14.104-3.403 28.119-4.285 42.56-4.215Z" fill="#093"/></svg>