<svg xmlns="http://www.w3.org/2000/svg" width="20" height="19" fill="none"><g fill="#FFBB38" clip-path="url(#a)"><path d="M16.958 5.38v-.252a2.095 2.095 0 0 0-2.093-2.093H2.842A2.095 2.095 0 0 0 .75 5.128v.251h16.208ZM10.325 12.113c0-1.086.35-2.118.994-2.968H.75v2.92c0 1.153.939 2.092 2.093 2.092h7.924a4.912 4.912 0 0 1-.442-2.044Zm-1.471-.635H7.047v-1.075h1.807v1.075ZM3.16 10.403h2.811v1.075H3.161v-1.075ZM12.436 8.07a4.89 4.89 0 0 1 2.816-.884c.591 0 1.167.104 1.706.303V6.455H.75V8.07h11.686ZM19.103 12.112a3.851 3.851 0 1 0-7.703 0 3.851 3.851 0 0 0 7.703 0Zm-3.332 2.057v.438h-1.076v-.435c-.325-.11-.59-.303-.85-.493l.634-.868c.35.255.528.378.773.378.138 0 .25-.066.292-.172.05-.129-.021-.247-.192-.316 0 0-.769-.257-1.124-.62-.298-.303-.393-.731-.298-1.139.095-.41.372-.73.765-.891v-.434h1.076v.416c.273.076.504.188.637.26l-.513.945c-.34-.185-.653-.24-.775-.198-.118.04-.136.117-.143.146-.01.041-.015.104.051.178.063.07.73.34.73.34.718.293 1.056 1.027.786 1.709-.14.354-.423.622-.773.756Z"/></g><defs><clipPath id="a"><path fill="#fff" d="M.75.323h18.353v18.353H.75z"/></clipPath></defs></svg>