<svg width="26" height="26" fill="none" xmlns="http://www.w3.org/2000/svg"><path d="M22.717 8.666h-3.185c-1.376 0-2.199-.823-2.199-2.199V3.282c0-1.376.823-2.199 2.2-2.199h3.184c1.376 0 2.2.823 2.2 2.2v3.184c0 1.376-.824 2.2-2.2 2.2Zm.239-3.585a.672.672 0 0 0-.477-.195.672.672 0 0 0-.477.195l-.195.195V2.849a.68.68 0 0 0-.682-.683.68.68 0 0 0-.683.683v2.427l-.195-.195a.68.68 0 0 0-.953 0 .68.68 0 0 0 0 .953l1.354 1.354c.054.054.13.098.206.13.021.01.043.01.065.022a.45.45 0 0 0 .173.032h.065c.076 0 .141-.01.217-.043h.021a.615.615 0 0 0 .195-.13c.011-.011.011-.011.022-.011l1.354-1.354a.67.67 0 0 0-.01-.953Z" fill="#27C153"/><path opacity=".4" d="M23.834 8.418V9.75H2.167V8.17a4.49 4.49 0 0 1 4.496-4.485h10.67v2.784c0 1.376.824 2.199 2.2 2.199h3.185c.433 0 .802-.076 1.116-.25Z" fill="#27C153"/><path d="M2.167 9.75v8.082a4.49 4.49 0 0 0 4.496 4.485h12.675a4.49 4.49 0 0 0 4.496-4.485V9.75H2.167Zm6.5 8.938H6.5a.818.818 0 0 1-.812-.813c0-.444.368-.813.812-.813h2.167c.444 0 .812.369.812.813a.818.818 0 0 1-.812.813Zm7.042 0h-4.334a.818.818 0 0 1-.812-.813c0-.444.368-.813.812-.813h4.334c.444 0 .812.369.812.813a.818.818 0 0 1-.812.813Z" fill="#27C153"/></svg>