<svg xmlns="http://www.w3.org/2000/svg" width="21" height="17" fill="none"><g clip-path="url(#a)"><path fill="#5865F2" d="M17.788 1.361A17.102 17.102 0 0 0 13.456 0c-.187.337-.405.791-.555 1.152a15.908 15.908 0 0 0-4.801 0C7.95.792 7.726.337 7.538 0c-1.5.26-2.958.718-4.336 1.365C.461 5.508-.282 9.548.09 13.53a17.322 17.322 0 0 0 5.313 2.723c.431-.593.812-1.22 1.138-1.875a11.19 11.19 0 0 1-1.792-.872c.15-.111.297-.227.44-.347 3.455 1.616 7.21 1.616 10.623 0 .143.12.29.235.44.347-.572.345-1.173.637-1.796.874.329.658.709 1.285 1.138 1.874a17.282 17.282 0 0 0 5.317-2.724c.436-4.617-.745-8.62-3.122-12.17Zm-10.777 9.72c-1.037 0-1.888-.968-1.888-2.147 0-1.18.833-2.15 1.888-2.15 1.056 0 1.906.97 1.888 2.15.002 1.18-.832 2.147-1.888 2.147Zm6.977 0c-1.038 0-1.888-.968-1.888-2.147 0-1.18.832-2.15 1.888-2.15 1.055 0 1.906.97 1.888 2.15 0 1.18-.833 2.147-1.888 2.147Z"/></g><defs><clipPath id="a"><path fill="#fff" d="M0 0h21v16.323H0z"/></clipPath></defs></svg>