<svg xmlns="http://www.w3.org/2000/svg" width="144" height="144" fill="none"><g clip-path="url(#a)"><g clip-path="url(#b)"><g clip-path="url(#c)"><path fill="#EAEEF9" d="M72.12 125.991c34.726 0 62.889-27.95 62.889-62.466 0-34.515-28.163-62.466-62.89-62.466-34.727 0-62.89 27.95-62.89 62.466 0 34.515 28.163 62.466 62.89 62.466Z"/><path fill="url(#d)" d="M120.293 55.372v38.221c0 7.941-6.459 14.399-14.505 14.399H38.663c-7.94 0-14.399-6.352-14.505-14.293V55.16c0-.211 0-.423.106-.635.106-.317.212-.53.318-.847l17.998-34.41c.636-1.376 2.012-2.117 3.494-2.117h52.197c1.482 0 2.752.741 3.494 2.118l17.998 34.41c.106.211.212.529.318.846.212.212.212.53.212.847Z"/><g filter="url(#e)"><path fill="#fff" d="M114.768 57.289v36.236c0 5.154-4.122 9.277-9.37 9.277H39.053c-5.153 0-9.37-4.123-9.37-9.277V57.101c0-.187 0-.374.093-.562h18.19c3.185 0 5.81 2.53 5.81 5.81 0 1.593.655 3.092 1.686 4.123 1.124 1.124 2.436 1.687 4.123 1.687H86.02c3.186 0 5.81-2.53 5.81-5.81 0-1.593.656-3.092 1.687-4.123 1.124-1.125 2.436-1.687 4.029-1.687h17.036c.187.188.187.469.187.75Z"/></g><g filter="url(#f)"><path fill="url(#g)" d="M120.293 55.372v42.139c0 5.823-4.659 10.481-10.588 10.481h-74.96c-5.822 0-10.587-4.658-10.587-10.481V55.16c0-.212 0-.424.106-.636h24.14c3.6 0 6.564 2.859 6.564 6.565 0 1.8.741 3.493 1.906 4.658 1.27 1.27 2.752 1.906 4.658 1.906h21.493c3.6 0 6.564-2.859 6.564-6.564 0-1.8.741-3.494 1.906-4.659 1.27-1.27 2.752-1.906 4.552-1.906h24.034c.212.212.212.53.212.847Z"/></g><path fill="#E6ECF5" d="M109.705 92.746h-21.81c-.741 0-1.376-.53-1.376-1.376 0-.742.529-1.377 1.376-1.377h21.599c.741 0 1.376.53 1.376 1.377.106.635-.529 1.376-1.165 1.376ZM99.965 99.417h-12.07c-.741 0-1.376-.53-1.376-1.377 0-.74.529-1.376 1.376-1.376h11.964c.741 0 1.376.53 1.376 1.376.106.636-.529 1.377-1.27 1.377Z"/></g></g></g><defs><clipPath id="a"><path fill="#fff" d="M0 0h143.99v143.99H0z"/></clipPath><clipPath id="b"><path fill="#fff" d="M0 0h143.99v143.99H0z"/></clipPath><clipPath id="c"><path fill="#fff" d="M0 1.059h143.99V142.93H0z"/></clipPath><linearGradient id="d" x1="72.233" x2="72.233" y1="20.307" y2="71.295" gradientUnits="userSpaceOnUse"><stop stop-color="#B0BACC"/><stop offset="1" stop-color="#969EAE"/></linearGradient><linearGradient id="g" x1="72.194" x2="72.194" y1="53.289" y2="108.568" gradientUnits="userSpaceOnUse"><stop stop-color="#FDFEFF"/><stop offset=".996" stop-color="#ECF0F5"/></linearGradient><filter id="e" width="112.613" height="73.791" x="15.919" y="39.599" color-interpolation-filters="sRGB" filterUnits="userSpaceOnUse"><feFlood flood-opacity="0" result="BackgroundImageFix"/><feColorMatrix in="SourceAlpha" result="hardAlpha" values="0 0 0 0 0 0 0 0 0 0 0 0 0 0 0 0 0 0 127 0"/><feOffset dy="-3.176"/><feGaussianBlur stdDeviation="6.882"/><feColorMatrix values="0 0 0 0 0.397708 0 0 0 0 0.47749 0 0 0 0 0.575 0 0 0 0.27 0"/><feBlend in2="BackgroundImageFix" result="effect1_dropShadow_1168_3744"/><feBlend in="SourceGraphic" in2="effect1_dropShadow_1168_3744" result="shape"/></filter><filter id="f" width="142.72" height="100.052" x=".866" y="42.879" color-interpolation-filters="sRGB" filterUnits="userSpaceOnUse"><feFlood flood-opacity="0" result="BackgroundImageFix"/><feColorMatrix in="SourceAlpha" result="hardAlpha" values="0 0 0 0 0 0 0 0 0 0 0 0 0 0 0 0 0 0 127 0"/><feOffset dy="11.646"/><feGaussianBlur stdDeviation="11.646"/><feColorMatrix values="0 0 0 0 0.397708 0 0 0 0 0.47749 0 0 0 0 0.575 0 0 0 0.27 0"/><feBlend in2="BackgroundImageFix" result="effect1_dropShadow_1168_3744"/><feBlend in="SourceGraphic" in2="effect1_dropShadow_1168_3744" result="shape"/></filter></defs></svg>