<svg xmlns="http://www.w3.org/2000/svg" width="90" height="90" fill="none"><path stroke="#14AE5C" stroke-linecap="round" stroke-linejoin="round" stroke-width="1.5" d="M56.25 80.625c5.231 0 7.845 0 10.001-.517A18.75 18.75 0 0 0 80.107 66.25c.518-2.156.518-4.77.518-10.001M33.75 80.625c-5.231 0-7.845 0-10.001-.517A18.75 18.75 0 0 1 9.893 66.25c-.518-2.156-.518-4.77-.518-10.001M33.75 9.375c-5.231 0-7.845 0-10.001.518A18.75 18.75 0 0 0 9.893 23.748c-.518 2.156-.518 4.774-.518 10.001M56.25 9.375c5.231 0 7.845 0 10.001.518a18.75 18.75 0 0 1 13.856 13.856c.518 2.156.518 4.774.518 10.001M56.25 35.625a11.25 11.25 0 1 0-22.5 0 11.25 11.25 0 0 0 22.5 0Z"/><path stroke="#14AE5C" stroke-linecap="round" stroke-linejoin="round" stroke-width="1.5" d="M63.75 65.625a18.75 18.75 0 0 0-37.5 0"/></svg>