<svg xmlns="http://www.w3.org/2000/svg" width="22" height="30" fill="none"><path fill="#662AB2" d="M7.267 9.995h7.466c.33 0 .647-.132.88-.366a1.253 1.253 0 0 0-.88-2.135H7.267c-.33 0-.647.132-.88.367a1.253 1.253 0 0 0 0 1.768c.233.234.55.366.88.366Zm.585-4.376a.626.626 0 0 0 .622.55h5.015a.633.633 0 0 0 .622-.55c.273-1.33.779-2.599 1.493-3.751a.59.59 0 0 0-.087-.713.623.623 0 0 0-.66-.225l-2.314 1a.285.285 0 0 1-.249 0 .312.312 0 0 1-.174-.162L11.572.38A.625.625 0 0 0 11 0a.62.62 0 0 0-.572.38L9.88 1.768a.312.312 0 0 1-.174.163.285.285 0 0 1-.249 0l-2.314-1a.62.62 0 0 0-.697.162.589.589 0 0 0-.087.713 11.535 11.535 0 0 1 1.493 3.813Zm7.428 5.776a.72.72 0 0 0-.447-.15H7.167a.72.72 0 0 0-.448.15C3.546 13.896 0 18.147 0 21.898 0 27.187 2.937 30 11 30s11-2.813 11-8.102c0-3.75-3.534-8.064-6.72-10.503Zm-3.036 13.766a.324.324 0 0 0-.261.313v.462a.931.931 0 1 1-1.867 0v-.4a.313.313 0 0 0-.31-.312H9.07a.931.931 0 0 1-.933-.938.94.94 0 0 1 .273-.663.93.93 0 0 1 .66-.275h2.676a.831.831 0 0 0 .847-.679.841.841 0 0 0-.536-.946l-2.713-1.088a2.69 2.69 0 0 1-1.325-1.08 2.71 2.71 0 0 1 .257-3.24c.387-.44.906-.74 1.479-.856a.324.324 0 0 0 .261-.313v-.462a.931.931 0 1 1 1.867 0v.4a.313.313 0 0 0 .31.312h.735a.94.94 0 0 1 0 1.875h-2.626a.832.832 0 0 0-.847.68.841.841 0 0 0 .536.946l2.713 1.088a2.69 2.69 0 0 1 1.32 1.092 2.71 2.71 0 0 1-.289 3.245c-.393.435-.917.73-1.492.84Z"/><circle cx="11" cy="21" r="9" fill="#662AB2"/><path stroke="#fff" stroke-linecap="round" stroke-linejoin="round" stroke-width="2" d="M8.04 24.552V18.07a.622.622 0 0 1 1.165-.302l3.59 6.464a.621.621 0 0 0 1.166-.302v-6.483m-7.106 2.369h8.29m-8.29 2.368h8.29"/></svg>