<svg width="26" height="26" fill="none" xmlns="http://www.w3.org/2000/svg"><path opacity=".4" d="M18.417 8.396a.804.804 0 0 1-.574-.238.817.817 0 0 1 0-1.149l2.22-2.22C18.158 3.164 15.699 2.167 13 2.167 7.02 2.167 2.167 7.02 2.167 13S7.02 23.834 13 23.834 23.834 18.98 23.834 13c0-2.697-.997-5.156-2.622-7.063l-2.22 2.22a.804.804 0 0 1-.575.24Z" fill="#FF4437"/><path d="m14.896 12.805-1.083-.38v-2.404h.086c.553 0 .997.487.997 1.083 0 .444.368.813.813.813a.819.819 0 0 0 .812-.813c0-1.495-1.17-2.708-2.622-2.708h-.086v-.271A.818.818 0 0 0 13 7.312a.818.818 0 0 0-.812.813v.27h-.325c-1.311 0-2.384 1.106-2.384 2.47 0 1.582.921 2.092 1.626 2.34l1.083.38v2.405H12.1c-.552 0-.997-.488-.997-1.083a.818.818 0 0 0-.812-.813.818.818 0 0 0-.813.813c0 1.495 1.17 2.708 2.622 2.708h.087v.27c0 .445.368.813.812.813a.818.818 0 0 0 .813-.812v-.271h.325c1.31 0 2.383-1.105 2.383-2.47 0-1.592-.92-2.102-1.625-2.34Zm-3.26-1.148c-.369-.13-.531-.206-.531-.802 0-.466.346-.845.758-.845h.325v1.83l-.553-.183Zm2.502 4.322h-.325v-1.83l.552.194c.369.13.531.206.531.802 0 .455-.347.834-.758.834ZM24.58 1.853a.847.847 0 0 0-.443-.444.777.777 0 0 0-.314-.065h-4.334a.818.818 0 0 0-.812.812c0 .444.368.813.812.813h2.373l-1.81 1.809c.412.357.791.737 1.149 1.148l1.81-1.809V6.5c0 .445.367.813.812.813a.818.818 0 0 0 .812-.813V2.167a.644.644 0 0 0-.054-.314Z" fill="#FF4437"/></svg>