<svg width="26" height="26" fill="none" xmlns="http://www.w3.org/2000/svg"><path opacity=".4" d="M20.378 6.77h1.473a12.288 12.288 0 0 0-.65-.833l-.823.834ZM20.064 4.789c-.271-.228-.542-.444-.834-.65v1.473l.834-.823Z" fill="#D64BC2"/><path opacity=".4" d="M18.417 8.396a.816.816 0 0 1-.314-.065.848.848 0 0 1-.444-.444.778.778 0 0 1-.065-.314V3.239c0-.01.01-.021.01-.043A10.9 10.9 0 0 0 13 2.167C7.02 2.167 2.167 7.02 2.167 13S7.02 23.834 13 23.834 23.834 18.98 23.834 13c0-1.646-.38-3.206-1.04-4.615-.011 0-.022.011-.044.011h-4.333Z" fill="#D64BC2"/><path d="m21.212 5.936 3.196-3.196a.817.817 0 0 0 0-1.148.817.817 0 0 0-1.149 0l-3.195 3.196c.411.357.79.747 1.148 1.148ZM19.23 3.25a.818.818 0 0 0-.813-.813.808.808 0 0 0-.802.77c.564.27 1.105.574 1.614.931V3.25ZM23.562 7.583a.818.818 0 0 0-.812-.812h-.9c.358.509.672 1.05.932 1.614a.81.81 0 0 0 .78-.802ZM14.896 12.805l-1.083-.38v-2.404h.086c.553 0 .997.487.997 1.083 0 .444.368.813.813.813a.819.819 0 0 0 .812-.813c0-1.495-1.17-2.708-2.622-2.708h-.086v-.271A.818.818 0 0 0 13 7.312a.818.818 0 0 0-.812.813v.27h-.325c-1.311 0-2.384 1.106-2.384 2.47 0 1.582.921 2.092 1.626 2.34l1.083.38v2.405H12.1c-.552 0-.997-.488-.997-1.083a.818.818 0 0 0-.812-.813.818.818 0 0 0-.813.813c0 1.495 1.17 2.708 2.622 2.708h.087v.27c0 .445.368.813.812.813a.818.818 0 0 0 .813-.812v-.271h.325c1.31 0 2.383-1.105 2.383-2.47 0-1.592-.92-2.102-1.625-2.34Zm-3.26-1.148c-.369-.13-.531-.206-.531-.802 0-.466.346-.845.758-.845h.325v1.83l-.553-.183Zm2.502 4.322h-.325v-1.83l.552.194c.369.13.531.206.531.802 0 .455-.347.834-.758.834Z" fill="#D64BC2"/></svg>