<svg xmlns="http://www.w3.org/2000/svg" width="20" height="20" fill="none"><path fill="#fff" d="M5 11.5a1.45 1.45 0 0 0 1.063-.437c.292-.291.438-.646.437-1.063 0-.417-.146-.771-.437-1.062A1.453 1.453 0 0 0 5 8.5a1.43 1.43 0 0 0-1.062.438c-.29.293-.436.647-.438 1.062-.002.415.144.769.438 1.063.294.294.648.44 1.062.437Zm5 0a1.45 1.45 0 0 0 1.063-.437c.292-.291.438-.646.437-1.063 0-.417-.146-.771-.437-1.062A1.453 1.453 0 0 0 10 8.5a1.43 1.43 0 0 0-1.062.438c-.29.293-.436.647-.438 1.062-.002.415.144.769.438 1.063.294.294.648.44 1.062.437Zm5 0a1.45 1.45 0 0 0 1.063-.437c.292-.291.438-.646.437-1.063 0-.417-.146-.771-.437-1.062A1.453 1.453 0 0 0 15 8.5a1.43 1.43 0 0 0-1.062.438c-.29.293-.436.647-.438 1.062-.002.415.144.769.438 1.063.294.294.648.44 1.062.437ZM10 20a9.733 9.733 0 0 1-3.9-.788 10.114 10.114 0 0 1-3.175-2.137c-.9-.9-1.612-1.958-2.137-3.175A9.76 9.76 0 0 1 0 10c0-1.383.262-2.683.788-3.9a10.121 10.121 0 0 1 2.137-3.175c.899-.9 1.957-1.612 3.175-2.137A9.742 9.742 0 0 1 10 0c1.382 0 2.682.263 3.9.788a10.084 10.084 0 0 1 3.175 2.137c.899.9 1.611 1.958 2.138 3.175A9.68 9.68 0 0 1 20 10a9.806 9.806 0 0 1-.788 3.9 10.032 10.032 0 0 1-2.137 3.175 10.16 10.16 0 0 1-3.175 2.138A9.689 9.689 0 0 1 10 20Zm0-2c2.233 0 4.125-.775 5.675-2.325C17.225 14.125 18 12.233 18 10c0-2.233-.775-4.125-2.325-5.675C14.125 2.775 12.233 2 10 2c-2.233 0-4.125.775-5.675 2.325C2.775 5.875 2 7.767 2 10c0 2.233.775 4.125 2.325 5.675C5.875 17.225 7.767 18 10 18Z"/></svg>