<svg xmlns="http://www.w3.org/2000/svg" width="30" height="30" fill="none"><g fill="#FF82AC" clip-path="url(#a)"><path d="M16.07 15.998V.871C7.968 1.296 1.368 7.895.943 15.998H16.07Zm-3.349-2.512h-1.674v-1.674h1.674v1.674ZM7.698 8.463h1.674v1.674H7.698V8.463Zm4.186-.347L13.068 9.3l-4.533 4.533L7.35 12.65l4.533-4.533ZM16.07 17.673H6.055c.408 5.336 4.68 9.608 10.015 10.016V17.672ZM17.745 4.22v25.231c6.535-.434 11.778-6.056 11.778-12.699S24.282 4.653 17.745 4.221ZM22.77 16a2.515 2.515 0 0 1 2.512 2.512c0 1.09-.702 2.01-1.675 2.357v1.83h-1.674v-1.83a2.508 2.508 0 0 1-1.675-2.357h1.675a.838.838 0 1 0 .837-.838 2.515 2.515 0 0 1-2.512-2.512c0-1.09.702-2.01 1.675-2.357v-1.83h1.674v1.83a2.508 2.508 0 0 1 1.675 2.357h-1.675a.838.838 0 1 0-.837.838Z"/></g><defs><clipPath id="a"><path fill="#fff" d="M.942.871h28.581v28.581H.943z"/></clipPath></defs></svg>