<svg xmlns="http://www.w3.org/2000/svg" width="29" height="30" fill="none"><g fill="#396AFF" clip-path="url(#a)"><path d="M28.46 6.491 23.1 1.133a.893.893 0 0 0-1.525.63v2.68H9.965a9.823 9.823 0 0 0-9.824 9.824c0 .493.4.893.893.893h3.572c.493 0 .893-.4.893-.893a4.465 4.465 0 0 1 4.466-4.466h11.61v2.68a.893.893 0 0 0 1.526.632l5.359-5.359a.894.894 0 0 0 0-1.263ZM27.827 15.161h-3.573c-.492 0-.893.4-.893.893a4.465 4.465 0 0 1-4.465 4.466H7.286v-2.68a.893.893 0 0 0-1.526-.63L.4 22.569a.894.894 0 0 0 0 1.263l5.36 5.358a.895.895 0 0 0 1.525-.632v-2.68h11.61a9.823 9.823 0 0 0 9.825-9.824c0-.493-.4-.893-.893-.893Z"/></g><defs><clipPath id="a"><path fill="#fff" d="M.14.871h28.58v28.581H.14z"/></clipPath></defs></svg>