<svg xmlns="http://www.w3.org/2000/svg" width="20" height="20" fill="none"><path fill="#14AE5C" d="M7.828 1.07 7.066 7.15h1.672l1.918-5.726-2.828-.353Zm3.582.313L9.48 7.149l5.848.004 1.34-4.008-5.258-1.762Zm-4.379.415-2.808.307.55 5.044h1.59l.668-5.35ZM2.5 5.977c-.45 0-.75.344-.83.672-.041.164-.018.297.028.37.045.071.109.13.333.13h2.035l-.128-1.172H2.5Zm13.96 0-.39 1.172h1.856a1.02 1.02 0 0 1-.117-.61 1.53 1.53 0 0 1 .207-.562H16.46ZM1.603 7.852v9.645c0 .199.109.433.287.613.18.18.416.289.611.289l15 .004c.195 0 .43-.11.61-.29.18-.179.288-.413.288-.613v-2.773H15c-1.719 0-1.719-3.203 0-3.203h3.398V7.856L1.602 7.852ZM15 12.227c-.781 0-.781 1.797 0 1.797h.871a.977.977 0 0 1-.598-.899c0-.402.247-.75.598-.898H15Zm1.629 0a.977.977 0 0 1 .598.898c0 .403-.247.75-.598.899h2.394v-1.797H16.63Zm-.379.625a.267.267 0 0 0-.273.273c0 .157.117.274.273.274a.267.267 0 0 0 .273-.274.267.267 0 0 0-.273-.273Z"/></svg>