<svg xmlns="http://www.w3.org/2000/svg" width="20" height="20" fill="none"><g clip-path="url(#a)"><path fill="url(#b)" d="M10 0a9.999 9.999 0 0 0-7.07 17.071A9.999 9.999 0 1 0 17.07 2.93 9.999 9.999 0 0 0 10 0Z"/><path fill="#fff" d="M4.526 9.894c2.915-1.27 4.86-2.107 5.831-2.512 2.778-1.155 3.355-1.356 3.731-1.362.083-.002.267.019.388.116a.43.43 0 0 1 .142.27c.012.079.03.256.015.394-.15 1.582-.801 5.419-1.132 7.19-.14.75-.416 1-.683 1.025-.581.054-1.022-.384-1.585-.752-.88-.577-1.376-.936-2.23-1.5-.988-.65-.348-1.008.215-1.592.147-.153 2.706-2.48 2.755-2.691.006-.027.012-.125-.047-.177-.058-.052-.144-.034-.207-.02-.089.02-1.493.95-4.218 2.788-.399.274-.76.407-1.085.4-.356-.007-1.043-.201-1.554-.367-.625-.204-1.124-.312-1.08-.657.022-.18.27-.365.744-.553Z"/></g><defs><linearGradient id="b" x1="1000" x2="1000" y1="0" y2="2000" gradientUnits="userSpaceOnUse"><stop stop-color="#2AABEE"/><stop offset="1" stop-color="#229ED9"/></linearGradient><clipPath id="a"><path fill="#fff" d="M0 0h20v20H0z"/></clipPath></defs></svg>