<svg width="24" height="25" fill="none" xmlns="http://www.w3.org/2000/svg"><path d="M15.83 8.79V5.328c0-.823 0-1.234-.174-1.487a.99.99 0 0 0-.65-.416c-.302-.051-.676.121-1.423.466L4.807 7.94c-.666.308-1 .462-1.244.7-.215.211-.38.468-.481.753-.114.321-.114.688-.114 1.422v4.9m13.356-.495h.01M2.968 11.956v6.53c0 1.108 0 1.662.215 2.086.19.372.493.675.865.864.423.216.978.216 2.086.216H17.61c1.109 0 1.663 0 2.086-.216.372-.19.675-.492.865-.864.215-.424.215-.978.215-2.086v-6.53c0-1.108 0-1.662-.215-2.085a1.979 1.979 0 0 0-.865-.865c-.423-.216-.977-.216-2.086-.216H6.134c-1.108 0-1.663 0-2.086.216-.372.19-.675.492-.865.865-.215.423-.215.977-.215 2.085Zm13.851 3.265a.495.495 0 1 1-.99 0 .495.495 0 0 1 .99 0Z" stroke="#fff" stroke-width="1.979" stroke-linecap="round" stroke-linejoin="round"/></svg>