<svg width="26" height="26" fill="none" xmlns="http://www.w3.org/2000/svg"><path d="M5.416 16.25c-1.018 0-1.96.358-2.708.953a4.301 4.301 0 0 0-1.625 3.38c0 .813.228 1.582.628 2.232a4.3 4.3 0 0 0 3.705 2.102c1.095 0 2.091-.401 2.85-1.084.335-.281.628-.628.855-1.018.401-.65.629-1.42.629-2.232a4.332 4.332 0 0 0-4.334-4.333Zm2.243 3.867L5.35 22.252a.826.826 0 0 1-.552.216.803.803 0 0 1-.574-.238l-1.073-1.073a.817.817 0 0 1 0-1.148.817.817 0 0 1 1.149 0l.52.52 1.733-1.603a.818.818 0 0 1 1.148.043.818.818 0 0 1-.043 1.148Z" fill="#F49A40"/><path opacity=".4" d="M21.103 14.029h2.188v-1.56a4.083 4.083 0 0 0-4.073-4.073H6.781a4.083 4.083 0 0 0-4.073 4.073v4.734a4.332 4.332 0 0 1 7.042 3.38c0 .813-.228 1.582-.629 2.232-.227.39-.52.736-.855 1.018h10.952a4.082 4.082 0 0 0 4.073-4.073v-1.29h-2.058c-1.17 0-2.242-.855-2.34-2.025a2.176 2.176 0 0 1 .65-1.766c.4-.412.953-.65 1.56-.65Z" fill="#F49A40"/><path d="M16.087 4.279v4.117H6.781a4.082 4.082 0 0 0-4.073 4.073V8.493c0-1.29.79-2.437 1.993-2.892l8.602-3.25c1.343-.499 2.784.487 2.784 1.928ZM24.44 15.134v2.232c0 .596-.476 1.083-1.083 1.105h-2.123c-1.17 0-2.243-.856-2.34-2.026a2.176 2.176 0 0 1 .65-1.766c.4-.411.953-.65 1.56-.65h2.253c.607.022 1.083.51 1.083 1.105ZM15.166 13.813H7.583A.818.818 0 0 1 6.771 13c0-.444.368-.813.812-.813h7.583c.444 0 .813.369.813.813a.818.818 0 0 1-.813.813Z" fill="#F49A40"/></svg>