<svg xmlns="http://www.w3.org/2000/svg" width="100" height="100" fill="none"><path fill="url(#a)" d="M50 8.333c23.013 0 41.667 18.654 41.667 41.667 0 23.012-18.654 41.666-41.666 41.666C26.988 91.666 8.334 73.012 8.334 50c0-23.013 18.654-41.667 41.667-41.667Z"/><path fill="url(#b)" d="M50 27.083a2.605 2.605 0 0 1 2.605 2.604V55.73a2.604 2.604 0 1 1-5.208 0V29.687A2.605 2.605 0 0 1 50 27.083Zm0 43.75a4.167 4.167 0 1 0 0-8.333 4.167 4.167 0 0 0 0 8.333Z"/><defs><linearGradient id="a" x1="21.355" x2="76.042" y1="-4.688" y2="99.479" gradientUnits="userSpaceOnUse"><stop stop-color="#FFCD0F"/><stop offset="1" stop-color="#FE8401"/></linearGradient><linearGradient id="b" x1="38.89" x2="60.557" y1="27.083" y2="71.106" gradientUnits="userSpaceOnUse"><stop stop-color="#4A4A4A"/><stop offset="1" stop-color="#212121"/></linearGradient></defs></svg>