<svg xmlns="http://www.w3.org/2000/svg" width="20" height="20" fill="none"><g clip-path="url(#a)"><path fill="url(#b)" d="M.426 9.88c0 1.681.438 3.322 1.273 4.768L.346 19.59l5.056-1.326a9.535 9.535 0 0 0 4.559 1.16h.004c5.257 0 9.536-4.278 9.538-9.536a9.476 9.476 0 0 0-2.791-6.746A9.479 9.479 0 0 0 9.964.346C4.707.346.428 4.623.426 9.88"/><path fill="url(#c)" d="M.085 9.877c0 1.741.454 3.44 1.319 4.938L.002 19.934 5.24 18.56a9.877 9.877 0 0 0 4.722 1.202h.004c5.446 0 9.879-4.432 9.88-9.878a9.818 9.818 0 0 0-2.89-6.988A9.819 9.819 0 0 0 9.965 0C4.519 0 .087 4.431.085 9.877Zm3.12 4.68-.196-.31a8.188 8.188 0 0 1-1.256-4.37C1.755 5.352 5.44 1.669 9.97 1.669a8.16 8.16 0 0 1 5.806 2.408 8.16 8.16 0 0 1 2.404 5.808c-.002 4.527-3.686 8.21-8.213 8.21h-.003a8.203 8.203 0 0 1-4.18-1.144l-.3-.178-3.109.815.83-3.03Z"/><path fill="#fff" d="M7.496 5.749c-.184-.411-.38-.42-.555-.427-.144-.006-.309-.006-.473-.006a.907.907 0 0 0-.659.31c-.226.246-.864.844-.864 2.058 0 1.215.885 2.389 1.008 2.554.124.164 1.708 2.737 4.218 3.726 2.085.823 2.51.66 2.963.618.452-.041 1.46-.597 1.666-1.174.206-.576.206-1.07.144-1.173-.062-.103-.226-.165-.473-.288-.247-.124-1.461-.721-1.687-.804-.227-.082-.391-.123-.556.124-.165.247-.637.803-.781.968-.144.165-.288.185-.535.062-.247-.124-1.043-.385-1.986-1.226-.734-.654-1.23-1.462-1.373-1.71-.144-.246-.016-.38.108-.503.111-.11.247-.288.37-.432.124-.145.165-.247.247-.412.083-.165.041-.31-.02-.433-.062-.123-.542-1.344-.762-1.832Z"/></g><defs><linearGradient id="b" x1="958.226" x2="958.226" y1="1924.73" y2=".346" gradientUnits="userSpaceOnUse"><stop stop-color="#1FAF38"/><stop offset="1" stop-color="#60D669"/></linearGradient><linearGradient id="c" x1="992.25" x2="992.25" y1="1993.39" y2="0" gradientUnits="userSpaceOnUse"><stop stop-color="#F9F9F9"/><stop offset="1" stop-color="#fff"/></linearGradient><clipPath id="a"><path fill="#fff" d="M0 0h19.85v20H0z"/></clipPath></defs></svg>